<svg
    xmlns="http://www.w3.org/2000/svg"
    width="48"
    height="48"
    viewBox="0 0 128 128"
>
  <defs>
    <linearGradient id="topGrey" x1="0%" y1="0%" x2="100%" y2="100%">
      <stop offset="0%" stop-color="#d8d8d8" />
      <stop offset="50%" stop-color="#c8c8c8" />
      <stop offset="100%" stop-color="#b8b8b8" />
    </linearGradient>
    <linearGradient id="leftGrey" x1="0%" y1="0%" x2="0%" y2="100%">
      <stop offset="0%" stop-color="#a8a8a8" />
      <stop offset="100%" stop-color="#888888" />
    </linearGradient>
    <linearGradient id="rightGrey" x1="100%" y1="0%" x2="0%" y2="100%">
      <stop offset="0%" stop-color="#989898" />
      <stop offset="100%" stop-color="#707070" />
    </linearGradient>
    <linearGradient id="bevelTopGrey" x1="0%" y1="0%" x2="0%" y2="100%">
      <stop offset="0%" stop-color="#f0f0f0" />
      <stop offset="100%" stop-color="#d8d8d8" />
    </linearGradient>
  </defs>
  <g transform="translate(4, 4)">
    <path d="M60,6 L114,33 L114,93 L60,120 L6,93 L6,33 Z" fill="#606060" opacity="0.4"/>
    <path d="M60,58 L108,34 L108,88 L60,112 Z" fill="url(#rightGrey)" />
    <g opacity="0.35" stroke="#505050" fill="none" stroke-linecap="round">
      <path d="M65,62 Q85,58 105,38" stroke-width="3" />
      <path d="M65,72 Q88,65 105,50" stroke-width="2.5" />
      <path d="M65,82 Q90,72 105,62" stroke-width="3" />
      <path d="M65,92 Q88,82 105,74" stroke-width="2" />
      <path d="M65,102 Q85,95 105,86" stroke-width="2.5" />
    </g>
    <path d="M60,58 L108,34 L105,36 L60,59 Z" fill="#a0a0a0" opacity="0.6" />
    <path d="M60,58 L12,34 L12,88 L60,112 Z" fill="url(#leftGrey)" />
    <g opacity="0.3" stroke="#606060" fill="none" stroke-linecap="round">
      <path d="M55,62 Q35,58 15,38" stroke-width="3" />
      <path d="M55,72 Q32,65 15,50" stroke-width="2.5" />
      <path d="M55,82 Q30,72 15,62" stroke-width="3" />
      <path d="M55,92 Q32,82 15,74" stroke-width="2" />
      <path d="M55,102 Q35,95 15,86" stroke-width="2.5" />
    </g>
    <path d="M60,58 L12,34 L15,36 L60,59 Z" fill="#c0c0c0" opacity="0.5" />
    <path d="M12,88 L60,112 L60,109 L15,86 Z" fill="#606060" opacity="0.4" />
    <path d="M60,10 L108,34 L60,58 L12,34 Z" fill="url(#topGrey)" />
    <g opacity="0.28" stroke="#808080" fill="none" stroke-linecap="round">
      <path d="M25,34 Q60,22 95,34" stroke-width="3.5" />
      <path d="M30,38 Q60,28 90,38" stroke-width="3" />
      <path d="M35,42 Q60,34 85,42" stroke-width="2.5" />
      <path d="M40,46 Q60,40 80,46" stroke-width="2" />
      <path d="M48,50 Q60,46 72,50" stroke-width="1.5" />
    </g>
    <path d="M60,10 L108,34 L104,35 L60,13 L16,35 L12,34 Z" fill="url(#bevelTopGrey)" opacity="0.7" />
    <path d="M60,14 L100,34 L60,54 L20,34 Z" fill="none" stroke="#e8e8e8" stroke-width="2" opacity="0.5" />
    <path d="M60,10 L108,34 L108,88 L60,112 L12,88 L12,34 Z" fill="none" stroke="#606060" stroke-width="1.5" stroke-linejoin="round" opacity="0.5" />
  </g>
</svg>
